<?xml version="1.0" encoding="UTF-8" standalone="no"?>
<!DOCTYPE svg PUBLIC "-//W3C//DTD SVG 1.1//EN" "http://www.w3.org/Graphics/SVG/1.1/DTD/svg11.dtd">
<svg width="100%" height="100%" viewBox="0 0 706 861" version="1.1" xmlns="http://www.w3.org/2000/svg" xmlns:xlink="http://www.w3.org/1999/xlink" xml:space="preserve" xmlns:serif="http://www.serif.com/" style="fill-rule:evenodd;clip-rule:evenodd;">
    <g>
        <rect x="169.5" y="10.5" width="360" height="840" style="fill:white;stroke:black;stroke-width:1px;"/>
        <rect x="279.5" y="35.5" width="140" height="20" style="fill:none;"/>
        <g transform="matrix(1,0,0,1,349,49)">
            <g>
                <text x="-42.003px" y="0px" style="font-family:'Helvetica';font-size:12px;">System(Divekit)</text>
            </g>
        </g>
        <path d="M55.5,445.5L305.95,287.9" style="fill:none;fill-rule:nonzero;stroke:black;stroke-width:1px;stroke-miterlimit:10;"/>
        <path d="M55.5,445.5L283.23,406.77" style="fill:none;fill-rule:nonzero;stroke:black;stroke-width:1px;stroke-miterlimit:10;"/>
        <g transform="matrix(1,0,0,1,5.91344,0)">
            <circle cx="30.5" cy="408" r="7.5" style="fill:none;stroke:black;stroke-width:1px;"/>
        </g>
        <g transform="matrix(1,0,0,1,5.91344,0)">
            <path d="M30.5,415.5L30.5,440.5M30.5,420.5L15.5,420.5M30.5,420.5L45.5,420.5M30.5,440.5L15.5,460.5M30.5,440.5L45.5,460.5" style="fill:none;fill-rule:nonzero;stroke:black;stroke-width:1px;stroke-miterlimit:10;"/>
        </g>
        <g transform="matrix(1,0,0,1,36.3843,477.527)">
            <g>
                <text x="-32.358px" y="0px" style="font-family:'Helvetica';font-size:12px;">Studierende</text>
            </g>
        </g>
        <path d="M655.5,445.5L410.69,513.5" style="fill:none;fill-rule:nonzero;stroke:black;stroke-width:1px;stroke-miterlimit:10;"/>
        <path d="M655.5,445.5L388.86,641.56" style="fill:none;fill-rule:nonzero;stroke:black;stroke-width:1px;stroke-miterlimit:10;"/>
        <circle cx="680.5" cy="408" r="7.5" style="fill:none;stroke:black;stroke-width:1px;"/>
        <path d="M680.5,415.5L680.5,440.5M680.5,420.5L665.5,420.5M680.5,420.5L695.5,420.5M680.5,440.5L665.5,460.5M680.5,440.5L695.5,460.5" style="fill:none;fill-rule:nonzero;stroke:black;stroke-width:1px;stroke-miterlimit:10;"/>
        <g transform="matrix(1,0,0,1,680,479)">
            <g>
                <text x="-14.663px" y="0px" style="font-family:'Helvetica';font-size:12px;">WMA</text>
            </g>
        </g>
        <ellipse cx="349.5" cy="260.5" rx="70" ry="35" style="fill:none;stroke:black;stroke-width:1px;"/>
        <g transform="matrix(1,0,0,1,349,264)">
            <g>
                <text x="-47.707px" y="0px" style="font-family:'Helvetica';font-size:12px;">Aufgaben abrufen</text>
            </g>
        </g>
        <ellipse cx="349.5" cy="395.5" rx="70" ry="35" style="fill:none;stroke:black;stroke-width:1px;"/>
        <g transform="matrix(1,0,0,1,349,399)">
            <g>
                <text x="-46.356px" y="0px" style="font-family:'Helvetica';font-size:12px;">Rückfrage stellen</text>
            </g>
        </g>
        <ellipse cx="349.5" cy="530.5" rx="70" ry="35" style="fill:none;stroke:black;stroke-width:1px;"/>
        <g transform="matrix(1,0,0,1,349,534)">
            <g>
                <text x="-62.036px" y="0px" style="font-family:'Helvetica';font-size:12px;">Rückfrage beantworten</text>
            </g>
        </g>
        <ellipse cx="349.5" cy="670.5" rx="70" ry="35" style="fill:none;stroke:black;stroke-width:1px;"/>
        <g transform="matrix(1,0,0,1,349,674)">
            <g>
                <text x="-52.699px" y="0px" style="font-family:'Helvetica';font-size:12px;">Rückfragen abrufen</text>
            </g>
        </g>
        <path d="M349.5,565.5L349.5,633.26" style="fill:none;fill-rule:nonzero;stroke:black;stroke-width:1px;stroke-miterlimit:10;stroke-dasharray:3,3;"/>
        <path d="M346,627.38L349.5,634.38L353,627.38" style="fill:none;fill-rule:nonzero;stroke:black;stroke-width:1px;stroke-miterlimit:10;"/>
        <g transform="matrix(1,0,0,1,349,597)">
            <g>
                <text x="-30.277px" y="0px" style="font-family:'Helvetica';font-size:11px;">&lt;&lt;include&gt;&gt;</text>
            </g>
        </g>
        <path d="M349.5,360.5L349.5,297.74" style="fill:none;fill-rule:nonzero;stroke:black;stroke-width:1px;stroke-miterlimit:10;stroke-dasharray:3,3;"/>
        <path d="M353,303.62L349.5,296.62L346,303.62" style="fill:none;fill-rule:nonzero;stroke:black;stroke-width:1px;stroke-miterlimit:10;"/>
        <g transform="matrix(1,0,0,1,349,324)">
            <g>
                <text x="-30.277px" y="0px" style="font-family:'Helvetica';font-size:11px;">&lt;&lt;include&gt;&gt;</text>
            </g>
        </g>
    </g>
</svg>
